<svg width="65" height="55" viewBox="0 0 65 55" fill="none" xmlns="http://www.w3.org/2000/svg">
<path d="M49.5236 44.2192C49.5176 44.2202 49.5106 44.2222 49.5056 44.2242C49.5056 44.2282 49.5126 44.2252 49.5236 44.2192Z" fill="#E9897E"/>
<path d="M59.6936 47.0798C58.1564 46.8269 56.912 46.792 55.8405 46.8899C55.4637 46.9249 54.9629 47.1098 54.9629 47.1098C54.9629 47.1098 51.0139 48.763 45.5496 50.737C45.6035 50.9579 54.2893 49.7635 55.0329 49.6456C57.1728 49.3067 61.4657 48.4052 61.4657 48.4052C61.4657 48.4052 61.5117 47.3797 59.6936 47.0798Z" fill="#E9897E"/>
<path d="M44.4511 51.1568C44.4511 51.1568 42.2952 52.1203 40.57 52.9329C42.1572 53.1808 43.0058 53.3087 43.3956 53.3707C45.9324 53.7725 51.4676 54.808 51.4676 54.808C51.4676 54.808 51.3157 53.2448 49.7625 52.5841C48.4501 52.0264 44.4511 51.1568 44.4511 51.1568Z" fill="#E9897E"/>
<path d="M61.2618 39.8554C57.4807 39.4056 46.781 44.0213 40.7659 45.5216C34.7519 47.0218 29.2516 44.4711 29.5954 43.5715C29.9393 42.671 35.6115 42.671 40.4231 42.3711C45.2347 42.0703 45.4056 39.6695 44.0323 38.9198C42.658 38.1692 32.6889 38.3201 28.5659 38.1692C24.441 38.0203 19.6413 36.592 16.0201 36.9698C9.16249 37.6844 3.0515 43.5516 0 47.7685C3.39933 47.1068 11.3154 47.4366 15.5214 48.696C19.7273 49.9554 30.456 55.2738 32.6899 54.823C34.9248 54.3732 38.573 51.9744 41.9433 50.5321C45.8444 48.8619 52.83 46.4191 57.4687 44.0113C61.6676 41.8314 65 41.3216 65 41.3216C65 41.3216 65.043 40.3071 61.2618 39.8554Z" fill="#E9897E"/>
<path d="M34.2002 19.7913H28.8118V25.1796H34.2002V19.7913Z" fill="#E9897E"/>
<path d="M41.3316 19.7913H35.9433V25.1796H41.3316V19.7913Z" fill="#E9897E"/>
<path d="M34.2002 26.7648H28.8118V32.1532H34.2002V26.7648Z" fill="#E9897E"/>
<path d="M41.3316 26.7648H35.9433V32.1532H41.3316V26.7648Z" fill="#E9897E"/>
<path d="M16.5898 34.6339V16.9247L35.1397 1.51325L53.5536 16.9237V39.6065C53.9394 39.5145 54.3272 39.4316 54.716 39.3566V16.3809L35.1427 0L15.4274 16.3799V34.6779C15.8032 34.6229 16.19 34.606 16.5898 34.6339Z" fill="#E9897E"/>
</svg>
